<svg viewBox="20 0 100 110" xmlns:xlink="http://www.w3.org/1999/xlink" xmlns="http://www.w3.org/2000/svg">
  <defs>
    <linearGradient id="prefix__a" x1="0" y1="0" x2=".05" y2="1">
      <stop offset="0" stop-color="#ffffaa" stop-opacity=".7" />
      <stop offset="0.2" stop-color="#e7e287" stop-opacity=".7" />
      <stop offset="0.8" stop-color="#df9c00" stop-opacity=".7" />
      <stop offset="1" stop-color="#c47000" stop-opacity=".7" />
    </linearGradient>
    <linearGradient id="prefix__b" x1="0" y1="6.265" x2="0" y2="112.766" gradientTransform="scale(1.04413 .95774)" gradientUnits="userSpaceOnUse">
      <stop offset="0" stop-color="#ffef4c" />
      <stop offset=".3" stop-color="#ffa313" />
      <stop offset="1" stop-color="#fcaf10" />
    </linearGradient>
    <linearGradient id="prefix__c" x1="21.903" y1="96.213" x2="-2.164" y2="15.992" gradientTransform="scale(1.23858 .80738)" gradientUnits="userSpaceOnUse">
      <stop offset="0" stop-color="#333" />
      <stop offset=".6" stop-color="#eee" />
      <stop offset="1" stop-color="#fff" />
    </linearGradient>
    <linearGradient id="prefix__f" x1="3.202" x2="85.652" y1="47.471" y2="47.471" gradientTransform="scale(1.24924 .80049)" gradientUnits="userSpaceOnUse">
      <stop offset="0" stop-color="#9a7a40" />
      <stop offset=".4" stop-color="#a2a264" />
      <stop offset="1" stop-color="#dfde85" />
    </linearGradient>
    <linearGradient id="prefix__g" x1="2.191" x2="60.048" y1="36.886" y2="36.886" gradientTransform="scale(1.78023 .56172)" gradientUnits="userSpaceOnUse">
      <stop offset="0" stop-color="#fffef4" />
      <stop offset=".3" stop-color="#ffeacb" />
      <stop offset="1" stop-color="#ffa145" />
    </linearGradient>
    <linearGradient id="prefix__e" x1="-7.869" y1="1.74" x2="-1.851" y2="122.107" gradientTransform="scale(1.03687 .96444)" gradientUnits="userSpaceOnUse">
      <stop offset="0" stop-color="#fffea5" />
      <stop offset=".4" stop-color="#e7e287" />
      <stop offset=".7" stop-color="#cfcc00" />
      <stop offset="1" stop-color="#b99a00" />
    </linearGradient>
    <linearGradient xlink:href="#prefix__a" id="prefix__h" x1="23.304" y1="159.15" x2="23.751" y2="120.09" gradientTransform="matrix(1.85116 0 0 .5402 0 0)"
                    gradientUnits="userSpaceOnUse" />
    <filter id="prefix__d" width="1.212" height="1.396" x="-.118" y="-.23">
      <feFlood flood-opacity=".6" result="flood" />
      <feGaussianBlur in="SourceGraphic" result="blur" stdDeviation="3.2" />
      <feOffset dx="-2" dy="-3" in="blur" result="offset" />
      <feComposite in="flood" in2="offset" operator="in" result="comp1" />
      <feComposite in="SourceGraphic" in2="comp1" />
    </filter>
    <filter id="prefix__i" x="-.002" y="0" width="1.004" height="1" color-interpolation-filters="sRGB">
      <feGaussianBlur stdDeviation="0.29999999999999999 0.20399999999999999" in="SourceAlpha" result="result0" />
      <feMorphology in="SourceAlpha" radius="3" result="result1" />
      <feGaussianBlur in="result1" />
      <feColorMatrix values="1 0 0 0 0 0 1 0 0 0 0 0 1 0 0 0 0 0 0.29999999999999999 0" result="result91" />
      <feComposite in="result0" operator="out" result="result2" in2="result91" />
      <feDiffuseLighting surfaceScale="5" diffuseConstant="1.09">
        <feDistantLight azimuth="71" elevation="47" />
      </feDiffuseLighting>
      <feBlend in2="SourceGraphic" mode="multiply" />
      <feComposite in2="SourceAlpha" operator="in" result="result3" />
      <feGaussianBlur stdDeviation="1" in="result3" result="result4" />
      <feComposite in2="result3" operator="atop" />
    </filter>
  </defs>
  <g style="transform:scaleX(115%)">
  <path fill="url(#prefix__b)" stroke="#000" stroke-linejoin="round" stroke-miterlimit="2" stroke-width="8"
        d="M8 10c-2 0-4 2-4 4v77c0 8 6 13 12 13h85c3 0 5.98-2 6-7l.2-58.18c.03-11.09-1.31-18-13.2-18H73c-3 0-4.59 1.06-7.37 3.04C53.2 23.6 57 10 44 10z"
        paint-order="stroke fill markers" transform="matrix(.77 0 0 .9 18 6)" />
  <path fill="url(#prefix__c)" d="M8.03 31.06c-.35-3.78 1.4-5.4 4.38-6C32.22 23.11 73.58 22.8 89 26l-5 44H7c2-15 2.03-28.94 1.03-38.94z"
        filter="url(#prefix__d)" transform="matrix(.77 0 0 .9 18 6)" />
  <path fill="url(#prefix__e)" d="M73 20.82h21c12 0 13 7.3 13 15.3V97c0 4-2 7-6 7H16c-7 0-12-6-12-13V49.12c0-4 4-7 7-7h30c20 0 19-21.3 32-21.3z"
        filter="url(#prefix__d)" transform="matrix(.77 0 0 .9 18 6)" />
  <path fill="url(#prefix__f)" d="M107 38v59c0 4-2 7-6 7H16c-7 0-12-6-12-13V50v35c0 8 5 12 12 12h85c4 0 6-2 6-6z" transform="matrix(.77 0 0 .9 18 6)" />
  <path fill="url(#prefix__g)"
        d="M4 51.62v-3.2c0-4.8 4-6.4 7-6.4h30c19.5 0 19.9-21.3 31.9-21.3h21c12 0 13 7.4 13 15.4 0-8-5.5-11.7-13-11.7h-18c-13.5 0-10.5 22.4-33 22.4H11.4c-3 0-7.5 1.6-7.5 6.4z"
        transform="matrix(.77 0 0 .9 18 6)" />
  <path style="text-align:center"
        d="M88.777 63.61c-.598 0-1.1.207-1.482.64-.37.43-.524 1.028-.524 1.729v13.85c0 .692.163 1.278.542 1.718.38.431.876.648 1.464.648.585 0 1.09-.205 1.471-.617.4-.432.568-1.034.568-1.75v-13.85c0-.71-.162-1.315-.552-1.736-.385-.425-.888-.633-1.487-.633zm-57.048.292c-.803 0-1.472.185-1.917.63-.439.439-.617 1.113-.617 1.925v12.89c0 .797.175 1.467.596 1.919l.002.002.004.004c.44.45 1.119.63 1.932.63h5.24c.916 0 1.726-.043 2.431-.132a7.68 7.68 0 001.916-.498 4.852 4.852 0 002.176-1.86c.539-.846.803-1.784.803-2.824 0-1.985-.96-3.414-2.807-4.258 1.318-.867 2-2.107 2-3.697a4.485 4.485 0 00-1.058-2.916 4.598 4.598 0 00-1.182-1.016 4.967 4.967 0 00-1.766-.64 13.375 13.375 0 00-2.199-.159zm1.792 3.461h2.395c1.231 0 2.124.15 2.643.393a.987.987 0 01.494.455c.111.208.18.496.18.879 0 .337-.077.62-.233.88l-.006.009-.004.007c-.205.38-.47.605-.853.737-.391.136-1.021.222-1.86.222h-2.756zm18.793.973c-1.006 0-1.933.165-2.773.498a5.672 5.672 0 00-2.145 1.426 6.21 6.21 0 00-1.32 2.232 8.319 8.319 0 00-.445 2.762c0 2.093.602 3.797 1.83 5.058 1.232 1.267 2.948 1.883 5.088 1.883.933 0 1.774-.121 2.512-.373.727-.245 1.344-.558 1.843-.945.49-.382.875-.792 1.137-1.234.245-.423.397-.837.397-1.23 0-.43-.142-.807-.45-1.079-.292-.258-.664-.377-1.076-.377-.373 0-.714.086-.978.313l-.008.007-.006.006c-.396.372-.718.666-.961.88-.233.203-.49.398-.766.58a3.21 3.21 0 01-.81.37 3.5 3.5 0 01-.928.114c-.499 0-.938-.12-1.348-.362-.395-.237-.718-.586-.974-1.078a3.64 3.64 0 01-.363-1.3h5.796c.86 0 1.59-.12 2.141-.4.645-.338.918-1.043.918-1.944 0-.942-.242-1.858-.717-2.75-.485-.911-1.214-1.645-2.17-2.202-.966-.576-2.113-.855-3.424-.855zm26.309 0c-1.007 0-1.935.165-2.775.498a5.672 5.672 0 00-2.145 1.426 6.21 6.21 0 00-1.32 2.232c-.299.854-.444 1.775-.444 2.762 0 2.093.6 3.797 1.829 5.058 1.232 1.267 2.95 1.883 5.09 1.883.933 0 1.774-.121 2.511-.373.727-.245 1.345-.558 1.844-.945.49-.382.875-.792 1.137-1.234.245-.423.396-.837.396-1.23 0-.43-.141-.807-.45-1.079-.291-.258-.663-.377-1.075-.377-.372 0-.717.086-.98.313l-.009.007-.005.006c-.396.372-.718.666-.961.88-.234.204-.49.398-.764.58a3.21 3.21 0 01-.81.37 3.5 3.5 0 01-.928.114c-.5 0-.94-.12-1.35-.362-.396-.237-.718-.586-.975-1.078a3.63 3.63 0 01-.36-1.3h5.796c.86 0 1.589-.12 2.139-.4.644-.338.92-1.042.92-1.944 0-.943-.244-1.859-.72-2.75-.484-.91-1.212-1.645-2.167-2.202-.966-.576-2.113-.855-3.424-.855zm-17.826.023c-.348 0-.672.089-.97.266l-.007.004-.004.002c-.29.167-.522.388-.69.664-.17.271-.265.561-.265.871 0 .185.031.388.082.602l.002.007.002.008c.058.207.125.41.2.61l.002.005.003.008c.077.184.15.366.217.547l.002.004 3.045 7.531c.296.706.522 1.223.654 1.489l.004.007.004.008c.166.302.406.57.705.807l.006.004.006.004c.366.271.822.388 1.342.388.406 0 .775-.076 1.088-.248.311-.165.566-.391.767-.68.195-.274.363-.597.502-.949.142-.337.255-.616.34-.834l3.067-7.603c.087-.214.16-.402.224-.568l-.008.015c.078-.181.143-.374.194-.576l.004-.016a2.19 2.19 0 00.095-.593c0-.487-.197-.909-.56-1.252a1.864 1.864 0 00-1.328-.532c-.53 0-.98.164-1.285.537-.265.315-.499.806-.717 1.415l-2.377 6.464-2.188-6.138c-.24-.712-.477-1.275-.71-1.625-.297-.462-.821-.653-1.448-.653zM52.21 71.41c.742 0 1.271.223 1.703.688.355.37.598.944.713 1.724h-4.809c.136-.766.387-1.34.739-1.718.44-.474.957-.694 1.654-.694zm26.307 0c.741 0 1.27.223 1.703.688.355.37.598.944.713 1.724h-4.807c.136-.766.386-1.34.738-1.718.22-.237.46-.406.73-.52.271-.114.574-.174.923-.174zM33.52 74.287h3.19c1.163 0 1.993.199 2.494.52.244.156.414.345.533.59.12.244.186.55.186.933 0 .374-.065.68-.182.932a1.555 1.555 0 01-.521.627c-.478.344-1.27.554-2.393.554h-3.307z"
        transform="matrix(1.11273 0 0 1.23937 -6.767 -18.49)" aria-label="Bevel"
        fill="url(#prefix__h)" paint-order="stroke fill markers" filter="url(#prefix__i)" />
  </g>
</svg>
