<svg
     xmlns="http://www.w3.org/2000/svg"
     xmlns-xlink="http://www.w3.org/1999/xlink"
     preserve-aspect-ratio="none"
     viewBox="5 -2 120 118">
  <defs>
    <linearGradient
                    id="a"
                    x1="0"
                    y1="0"
                    x2="0"
                    y2="1">
      <stop offset="0" stop-color="#ffef4c" />
      <stop offset="0.3" stop-color="#ffa313" />
      <stop offset="1" stop-color="#ffba10" />
    </linearGradient>
    <linearGradient
                    id="h"
                    x1="0.3"
                    y1="1"
                    x2="0"
                    y2="0">
      <stop offset="0" stop-color="#333" />
      <stop offset=".8" stop-color="#ddd" />
      <stop offset="1" stop-color="#fff" />
    </linearGradient>
    <linearGradient
                    id="c"
                    x1="0"
                    x2="1"
                    y1="0"
                    y2="0">
      <stop offset="0" stop-color="#9a7a40" />
      <stop offset=".4" stop-color="#a2a264" />
      <stop offset="1" stop-color="#dfde85" />
    </linearGradient>
    <linearGradient
                    id="e"
                    x1="0"
                    x2="1"
                    y1="0"
                    y2="0"
                    gradient-units="userSpaceOnUse">
      <stop offset="0" stop-color="#fffef4" />
      <stop offset=".3" stop-color="#ffeacb" />
      <stop offset="1" stop-color="#ffa145" />
    </linearGradient>
    <linearGradient
                    xlink-href="#b"
                    id="j"
                    x1="0"
                    y1="0"
                    x2="0.05"
                    y2="1">
      <stop offset="0" stop-color="#ffffd5" />
      <stop offset=".4" stop-color="#e7e287" />
      <stop offset=".7" stop-color="#bfbc00" />
      <stop offset="1" stop-color="#aa8a00" />
    </linearGradient>
    <filter id="g" width="4" height="6" x="-0.5" y="-1">
      <feFlood floodColor="#000" flood-opacity="0.6" result="flood" />
      <feGaussianBlur in="SourceGraphic" result="blur" stdDeviation="3.2" />
      <feOffset dx="-2" dy="-3" in="blur" result="offset" />
      <feComposite in="flood" in2="offset" operator="in" result="comp1" />
      <feComposite in="SourceGraphic" in2="comp1" />
    </filter>
  </defs>
  <g transform="translate(18 6) scale(.85,.9)">
    <path
          fill="url(#a)"
          stroke="#000"
          stroke-linejoin="round"
          stroke-miterlimit="2"
          stroke-width="8"
          d="m8.8 10c-2 0-4 2-4 4l2.2 67c1 14 1 23 7 23h72.8c2.7 0 7-2.5 7.6-7 7.2-43.8 23.3-76.3 6.3-76.2l-24.7.2c-6 0-3 3-11 3-22 0-16-14-30.3-14z" paint-order="stroke fill markers" />
    <path
          fill="url(#h)"
          d="m8 36c0-9 5-12 13-12 14 1 45 0 62 0l1 63h-76c2-15 1-23 1-31.9z"
          filter="url(#g)" />
    <path
          fill="url(#j)"
          d="m 78.534976,20.82 18.544737,-0.1 c 9.230637,-0.04978 13.425067,1.178153 10.580697,14.881831 l -12.74396,61.398169 c -0.805967,3.88301 -2,7 -6,7 h -70.998844 c -7,0 -12.8633113,-5.917515 -12.0000001,-13 l 4.5716191,-37.504925 c 0.493321,-4.047134 3.685314,-11.375075 6.685314,-11.375075 h 18.536192 c 20,0 29.837741,-21.229972 42.824245,-21.3 z"
          filter="url(#g)" />
    <path
          fill="url(#c)"
          d="m 94.813151,98.471976 c -0.920096,4.731464 -2.519829,5.528024 -7.874906,5.528024 h -69.493126 c -5.527731,0 -12.6738135,-3.45772 -11.5081959,-13.396673 l 1.3356487,-10.773558 c -1.0614345,11.742466 4.2427042,17.170231 11.5337862,17.170231 h 70.153535 c 4.166333,0 6.242178,-0.528024 7.020038,-4.528024 z" />
    <path
          fill="url(#e)"
          d="m 10.694134,51.62 0.622281,-3.2 c 0.93342,-4.8 3.430904,-6.4 6.555654,-6.4 h 18.197805 c 20.310876,0 29.435701,-21.3 41.934702,-21.3 h 21.762394 c 11.39583,0 9.52338,7.499795 7.70352,15.4 1.55569,-8 -2.40746,-11.7 -10.219328,-11.7 h -16.841348 c -14.061376,0 -19.858726,22.4 -43.294353,22.4 h -17.780189 c -3.12475,0 -7.824148,2.023394 -8.75757,6.823394 z" />
  </g>
</svg>
